<svg xmlns="http://www.w3.org/2000/svg" viewBox="0 0 400 400">
  <defs>
    <pattern id="yarnPattern" x="0" y="0" width="200" height="200" patternUnits="userSpaceOnUse">
      <!-- Yarn ball 1 -->
      <g transform="translate(20,20) scale(0.4) rotate(-15)" opacity="0.1">
        <circle cx="50" cy="50" r="45" fill="#4CAF50"/>
        <!-- Striped pattern -->
        <path d="M15,50 C15,30 30,15 50,15 M50,15 C70,15 85,30 85,50" fill="none" stroke="#4CAF50" stroke-width="3"/>
        <path d="M20,65 C20,45 35,30 50,30 M50,30 C65,30 80,45 80,65" fill="none" stroke="#4CAF50" stroke-width="3"/>
        <path d="M25,80 C25,60 40,45 50,45 M50,45 C60,45 75,60 75,80" fill="none" stroke="#4CAF50" stroke-width="3"/>
        <!-- Knitting needle -->
        <line x1="95" y1="30" x2="50" y2="50" stroke="#4CAF50" stroke-width="2"/>
        <circle cx="98" cy="28" r="3" fill="#4CAF50"/>
      </g>
      
      <!-- Yarn ball 2 -->
      <g transform="translate(150,120) scale(0.3) rotate(30)" opacity="0.1">
        <circle cx="50" cy="50" r="45" fill="#4CAF50"/>
        <!-- Striped pattern -->
        <path d="M15,50 C15,30 30,15 50,15 M50,15 C70,15 85,30 85,50" fill="none" stroke="#4CAF50" stroke-width="3"/>
        <path d="M20,65 C20,45 35,30 50,30 M50,30 C65,30 80,45 80,65" fill="none" stroke="#4CAF50" stroke-width="3"/>
        <path d="M25,80 C25,60 40,45 50,45 M50,45 C60,45 75,60 75,80" fill="none" stroke="#4CAF50" stroke-width="3"/>
        <!-- Knitting needle -->
        <line x1="95" y1="30" x2="50" y2="50" stroke="#4CAF50" stroke-width="2"/>
        <circle cx="98" cy="28" r="3" fill="#4CAF50"/>
      </g>
      
      <!-- Yarn ball 3 -->
      <g transform="translate(60,150) scale(0.35) rotate(-45)" opacity="0.1">
        <circle cx="50" cy="50" r="45" fill="#4CAF50"/>
        <!-- Striped pattern -->
        <path d="M15,50 C15,30 30,15 50,15 M50,15 C70,15 85,30 85,50" fill="none" stroke="#4CAF50" stroke-width="3"/>
        <path d="M20,65 C20,45 35,30 50,30 M50,30 C65,30 80,45 80,65" fill="none" stroke="#4CAF50" stroke-width="3"/>
        <path d="M25,80 C25,60 40,45 50,45 M50,45 C60,45 75,60 75,80" fill="none" stroke="#4CAF50" stroke-width="3"/>
        <!-- Knitting needle -->
        <line x1="95" y1="30" x2="50" y2="50" stroke="#4CAF50" stroke-width="2"/>
        <circle cx="98" cy="28" r="3" fill="#4CAF50"/>
      </g>
    </pattern>
  </defs>
  <rect width="100%" height="100%" fill="url(#yarnPattern)"/>
</svg>
